<?xml version="1.0" encoding="UTF-8" standalone="no"?>
<!DOCTYPE svg PUBLIC "-//W3C//DTD SVG 1.1//EN" "http://www.w3.org/Graphics/SVG/1.1/DTD/svg11.dtd">
<svg width="100%" height="100%" viewBox="0 0 145 140" version="1.1" xmlns="http://www.w3.org/2000/svg" xmlns:xlink="http://www.w3.org/1999/xlink" xml:space="preserve" xmlns:serif="http://www.serif.com/" style="fill-rule:evenodd;clip-rule:evenodd;stroke-linejoin:round;stroke-miterlimit:2;">
    <g id="Changi-Airport" serif:id="Changi Airport" transform="matrix(0.442499,0,0,0.45137,-397.975,-168.522)">
        <path d="M944.298,403.523C940.484,400.405 938.047,395.663 938.047,390.357C938.047,380.974 945.665,373.357 955.047,373.357C964.43,373.357 972.047,380.974 972.047,390.357C972.047,395.663 969.611,400.405 965.797,403.523L967.089,403.523C967.431,403.523 967.76,403.659 968.002,403.902C968.244,404.144 968.381,404.472 968.381,404.815L968.381,412.597C973.616,412.911 978.851,413.406 984.086,414.083C984.6,414.15 985.059,414.438 985.344,414.871C985.629,415.304 985.713,415.839 985.572,416.338C984.44,420.354 981.888,429.412 980.762,433.404C984.418,433.911 988.073,434.524 991.729,435.243C992.311,435.359 992.744,435.848 992.787,436.44C992.913,438.162 993.178,441.786 993.393,444.718C1004.06,446.115 1010.71,448.088 1010.71,450.273L1010.71,457.94L994.381,485.69C992.604,487.806 984.76,489.636 971.797,490.498L971.797,683.523L940.297,683.523L940.297,490.621C926.265,489.821 917.136,487.681 915.714,485.69L899.381,457.94L899.381,450.273C899.381,448.088 906.035,446.115 916.702,444.718L917.308,436.437C917.351,435.846 917.782,435.357 918.363,435.24C921.857,434.543 925.351,433.946 928.845,433.45L924.023,416.338C923.882,415.839 923.965,415.303 924.25,414.87C924.535,414.437 924.995,414.15 925.509,414.082C930.744,413.406 935.979,412.911 941.214,412.597L941.214,404.815C941.214,404.472 941.35,404.144 941.592,403.902C941.834,403.659 942.163,403.523 942.506,403.523L944.298,403.523Z" style="fill:rgb(130,119,23);"/>
    </g>
    <g transform="matrix(0.273534,0,0,0.279018,3.99583,-109.986)">
        <g id="Esplanade" transform="matrix(0.210572,0,0,0.210572,33.2605,759.862)">
            <path d="M496.047,646.273L1364.05,646.273C1364.05,646.273 1350.05,524.273 1288.05,456.273C1253.69,418.594 1151.05,377.273 970.047,376.273C840.015,375.555 797.047,365.273 720.047,390.273C643.047,415.273 597.047,464.273 575.047,500.273C553.047,536.273 496.047,646.273 496.047,646.273Z" style="fill:rgb(130,119,23);"/>
        </g>
        <g id="Esplanade1" serif:id="Esplanade" transform="matrix(-0.210572,0,0,0.210572,619.944,759.862)">
            <path d="M496.047,646.273L1364.05,646.273C1364.05,646.273 1350.05,524.273 1288.05,456.273C1253.69,418.594 1151.05,377.273 970.047,376.273C840.015,375.555 797.047,365.273 720.047,390.273C643.047,415.273 597.047,464.273 575.047,500.273C553.047,536.273 496.047,646.273 496.047,646.273Z" style="fill:rgb(130,119,23);"/>
        </g>
    </g>
</svg>
