<?xml version="1.0" encoding="UTF-8" standalone="no"?>
<!DOCTYPE svg PUBLIC "-//W3C//DTD SVG 1.1//EN" "http://www.w3.org/Graphics/SVG/1.1/DTD/svg11.dtd">
<svg width="100%" height="100%" viewBox="0 0 210 115" version="1.1" xmlns="http://www.w3.org/2000/svg" xmlns:xlink="http://www.w3.org/1999/xlink" xml:space="preserve" xmlns:serif="http://www.serif.com/" style="fill-rule:evenodd;clip-rule:evenodd;stroke-linejoin:round;stroke-miterlimit:2;">
    <g id="Marina-Bay-Sands" serif:id="Marina Bay Sands" transform="matrix(0.357651,0,0,0.357659,-265.041,-117.044)">
        <path d="M940.584,375.786L940.584,369.161C929.422,368.846 923.959,368.406 915.25,367.5C903.332,366.261 888.447,364.3 879.011,361.638C878.49,361.491 866.917,358.25 863.417,355.75C860.487,353.658 860.828,350.591 860.834,350.584L889.584,350.584L889.542,343.375L917.375,343.375L917.25,339.584L962.584,339.584L962.584,327.25L990.584,327.25L990.584,339.584L1246.58,339.584L1246.58,327.25L1279.26,327.25L1278.92,339.584C1278.92,339.584 1308.22,339.573 1321.15,339.569C1322.76,339.568 1324.3,340.206 1325.43,341.341C1326.57,342.476 1326.73,344.086 1327.21,345.62C1328.4,349.483 1328.72,357.832 1327.22,363.529C1326.39,366.655 1324.6,369.388 1321.37,369.403C1317.05,369.422 1311.92,369.445 1311.92,369.445L1311.92,375.786L1318.58,375.786L1310.92,648.786L1221.92,648.786L1216.92,375.786L1223.58,375.786L1223.58,369.161C1223.58,369.161 1196.01,369.313 1167.92,369.161L1167.92,375.786L1174.58,375.786L1168.58,648.786L1084.58,648.786L1072.92,375.786L1079.47,375.786L1079.33,369.622C1072.64,369.598 1044.49,369.465 1028.84,369.161L1028.89,375.786L1035.58,375.786L1030.58,648.786L941.584,648.786L933.917,375.786L940.584,375.786Z" style="fill:rgb(130,119,23);"/>
    </g>
    <g id="Singapore-Flyer" serif:id="Singapore Flyer" transform="matrix(0.198724,0,0,0.198728,-166.827,-18.9475)">
        <path d="M1003.92,304.895C1004.64,304.294 1005.57,303.94 1006.57,303.94L1027.63,303.94C1029.58,303.94 1031.26,305.29 1031.68,307.188C1031.83,307.989 1031.93,308.789 1031.99,309.588C1046,313.64 1059.08,320.12 1070.93,328.607L1082.97,328.607C1084.91,328.606 1086.59,329.957 1087.01,331.855C1087.46,334.302 1087.52,336.735 1087.01,339.167C1086.84,339.905 1086.48,340.557 1085.98,341.074C1094.12,348.817 1101.47,357.612 1107.92,367.273L1116.3,367.273C1118.24,367.273 1119.93,368.624 1120.35,370.522C1120.8,372.969 1120.85,375.401 1120.34,377.834C1119.92,379.681 1118.28,380.992 1116.38,380.992L1116.15,380.997C1121.24,390.485 1125.53,400.624 1128.93,411.273L1136.97,411.273C1138.91,411.273 1140.59,412.624 1141.01,414.522C1141.46,416.969 1141.52,419.401 1141.01,421.834C1140.59,423.681 1138.94,424.992 1137.05,424.992C1135.78,425.02 1134.25,425.039 1132.74,425.051C1135.39,436.265 1137.08,447.943 1137.69,459.94L1144.3,459.94C1146.24,459.94 1147.93,461.29 1148.35,463.188C1148.8,465.636 1148.85,468.068 1148.34,470.5C1147.92,472.347 1146.28,473.658 1144.38,473.658C1142.5,473.7 1140.02,473.722 1137.93,473.733C1137.84,479.035 1137.54,484.386 1137.02,489.775C1136.5,495.247 1135.76,500.639 1134.83,505.94L1140.3,505.94C1142.24,505.94 1143.93,507.29 1144.35,509.188C1144.8,511.636 1144.85,514.068 1144.34,516.5C1143.92,518.347 1142.28,519.658 1140.38,519.658C1137.83,519.715 1134.18,519.735 1131.89,519.742C1129.51,529.29 1126.46,538.49 1122.82,547.273L1127.63,547.273C1129.58,547.273 1131.26,548.624 1131.68,550.522C1132.13,552.969 1132.18,555.401 1131.67,557.834C1131.25,559.681 1129.61,560.992 1127.72,560.992C1123.73,561.079 1117.1,561.079 1117.1,561.079L1116.44,561.079C1112.31,569.146 1107.66,576.787 1102.55,583.94L1105.63,583.94C1107.58,583.94 1109.26,585.29 1109.68,587.188C1110.13,589.636 1110.18,592.068 1109.67,594.5C1109.25,596.347 1107.61,597.658 1105.72,597.658C1101.73,597.746 1095.1,597.746 1095.1,597.746C1095.09,597.746 1093.59,597.746 1091.59,597.736C1086.07,603.986 1080.17,609.741 1073.94,614.944C1075.13,615.458 1076.05,616.521 1076.35,617.855C1076.8,620.302 1076.85,622.735 1076.34,625.167C1075.92,627.014 1074.28,628.325 1072.38,628.325C1068.4,628.413 1061.77,628.413 1061.77,628.413C1061.76,628.413 1058.43,628.413 1055.07,628.381C1046.09,633.766 1036.63,638.1 1026.82,641.255L1028.43,674.023L1015.43,674.023L1014.82,644.482C1002.78,647.094 990.32,647.946 977.66,646.819L978.456,674.023L966.427,674.023L966.241,645.263C956.331,643.437 946.819,640.424 937.798,636.358C933.91,636.413 929.099,636.413 929.099,636.413C929.085,636.413 922.46,636.412 918.481,636.325C916.586,636.325 914.944,635.014 914.524,633.167C914.014,630.735 914.068,628.302 914.518,625.855C914.709,624.996 915.158,624.248 915.773,623.688C906.963,617.421 898.825,610.048 891.478,601.739C889.206,601.73 886.081,601.708 883.814,601.658C881.92,601.658 880.278,600.347 879.858,598.5C879.347,596.068 879.402,593.636 879.852,591.188C880.058,590.255 880.57,589.454 881.269,588.881C874.342,579.161 868.367,568.486 863.483,557.062C861.579,557.049 859.468,557.028 857.814,556.992C855.92,556.992 854.278,555.681 853.858,553.834C853.347,551.401 853.402,548.969 853.852,546.522C854.272,544.624 855.955,543.273 857.899,543.273L858.245,543.273C854.465,531.967 851.706,520.063 850.086,507.732C848.037,507.72 845.645,507.699 843.814,507.658C841.92,507.658 840.278,506.347 839.858,504.5C839.347,502.068 839.402,499.636 839.852,497.188C840.272,495.29 841.955,493.94 843.899,493.94L848.766,493.94C848.139,483.597 848.307,473.01 849.333,462.272C849.372,461.865 849.412,461.458 849.454,461.051C847.949,461.038 846.414,461.019 845.147,460.992C843.253,460.992 841.611,459.681 841.191,457.834C840.681,455.401 840.735,452.969 841.185,450.522C841.605,448.624 843.288,447.273 845.232,447.273L851.325,447.273C853.271,435.861 856.147,424.866 859.847,414.393C858.025,414.38 856.048,414.359 854.481,414.325C852.586,414.325 850.944,413.014 850.524,411.167C850.014,408.735 850.068,406.302 850.518,403.855C850.939,401.957 852.622,400.606 854.566,400.607L865.32,400.607C868.977,392.342 873.165,384.468 877.823,377.042C876.64,377.03 875.477,377.014 874.481,376.992C872.586,376.992 870.944,375.681 870.524,373.834C870.014,371.401 870.068,368.969 870.518,366.522C870.939,364.624 872.622,363.273 874.566,363.273L887.39,363.273C892.427,356.715 897.861,350.608 903.641,345.004C903.429,345 903.223,344.996 903.024,344.992C901.13,344.992 899.487,343.681 899.068,341.834C898.557,339.401 898.612,336.969 899.061,334.522C899.482,332.624 901.165,331.273 903.109,331.273L919.855,331.273C925.691,326.985 931.779,323.161 938.075,319.843C937.984,319.627 937.911,319.401 937.858,319.167C937.347,316.735 937.402,314.302 937.852,311.855C938.272,309.957 939.955,308.606 941.899,308.607L962.966,308.607C963.712,308.606 964.42,308.805 965.032,309.158C977.566,305.735 990.616,304.228 1003.92,304.895ZM1014.65,636.286L1011.08,462.666L972.577,473.166L977.424,638.763L977.618,638.781C990.248,639.989 1002.68,639.074 1014.65,636.286ZM1002.26,312.83C990.322,312.367 978.606,313.784 967.327,316.868C967.273,317.635 967.168,318.401 967.007,319.167C966.587,321.014 964.945,322.325 963.051,322.325C959.067,322.413 952.433,322.413 952.433,322.413C952.429,322.413 952.071,322.413 951.473,322.411C943.434,325.853 935.695,330.159 928.344,335.242C928.678,337.447 928.677,339.64 928.217,341.834C927.797,343.681 926.155,344.992 924.261,344.992C921.68,345.048 917.987,345.068 915.706,345.075C909.256,350.69 903.195,356.946 897.598,363.768C898.632,364.325 899.412,365.312 899.68,366.522C900.13,368.969 900.185,371.401 899.674,373.834C899.254,375.681 897.612,376.992 895.718,376.992C893.349,377.044 890.043,377.065 887.752,377.073C882.844,384.437 878.427,392.305 874.571,400.607L875.633,400.607C877.577,400.606 879.26,401.957 879.68,403.855C880.13,406.302 880.185,408.735 879.674,411.167C879.254,413.014 877.612,414.325 875.718,414.325C873.701,414.369 871.005,414.391 868.834,414.402C864.982,424.834 861.98,435.831 859.948,447.273L866.299,447.273C868.243,447.273 869.926,448.624 870.347,450.522C870.797,452.969 870.851,455.401 870.341,457.834C869.921,459.681 868.279,460.992 866.384,460.992C863.866,461.047 860.288,461.067 857.997,461.075C857.926,461.742 857.859,462.411 857.795,463.081C856.794,473.55 856.639,483.868 857.265,493.94L864.966,493.94C866.91,493.94 868.593,495.29 869.014,497.188C869.463,499.636 869.518,502.068 869.007,504.5C868.587,506.347 866.945,507.658 865.051,507.658C863.174,507.7 860.708,507.721 858.625,507.733C860.304,520.105 863.173,532.015 867.102,543.273L878.966,543.273C880.91,543.273 882.593,544.624 883.014,546.522C883.463,548.969 883.518,551.401 883.007,553.834C882.587,555.681 880.945,556.992 879.051,556.992C877.163,557.033 874.68,557.055 872.589,557.066C877.602,568.231 883.714,578.595 890.776,587.94L904.966,587.94C906.91,587.94 908.593,589.29 909.014,591.188C909.463,593.636 909.518,596.068 909.007,598.5C908.587,600.347 906.945,601.658 905.051,601.658C904.301,601.675 903.456,601.688 902.58,601.699C910.528,609.855 919.334,616.895 928.854,622.607L939.633,622.607C941.577,622.606 943.26,623.957 943.68,625.855C943.954,627.344 944.081,628.827 944.024,630.309C951.12,633.293 958.524,635.582 966.188,637.105L965.077,466.166L1017.58,452.666L1026.41,632.901C1033.47,630.473 1040.34,627.387 1046.95,623.698C1046.72,621.755 1046.83,619.81 1047.18,617.855C1047.61,615.957 1049.29,614.606 1051.23,614.607L1061.1,614.607C1068.36,609.291 1075.22,603.206 1081.58,596.442C1081.07,595.92 1080.7,595.255 1080.53,594.5C1080.01,592.068 1080.07,589.636 1080.52,587.188C1080.94,585.29 1082.62,583.94 1084.57,583.94L1092.2,583.94C1097.64,576.83 1102.6,569.159 1106.99,561.002C1106.82,560.999 1106.65,560.995 1106.48,560.992C1104.59,560.992 1102.94,559.681 1102.53,557.834C1102.01,555.401 1102.07,552.969 1102.52,550.522C1102.94,548.624 1104.62,547.273 1106.57,547.273L1113.66,547.273C1117.46,538.516 1120.65,529.304 1123.14,519.715C1121.74,519.703 1120.33,519.684 1119.15,519.658C1117.25,519.658 1115.61,518.347 1115.19,516.5C1114.68,514.068 1114.74,511.636 1115.18,509.188C1115.61,507.29 1117.29,505.94 1119.23,505.94L1126.2,505.94C1127.22,500.384 1128.01,494.721 1128.56,488.966C1129.05,483.848 1129.34,478.766 1129.43,473.732C1127.38,473.72 1124.98,473.699 1123.15,473.658C1121.25,473.658 1119.61,472.347 1119.19,470.5C1118.68,468.068 1118.74,465.636 1119.18,463.188C1119.61,461.29 1121.29,459.94 1123.23,459.94L1129.19,459.94C1128.56,447.924 1126.82,436.248 1124.08,425.074C1121.79,425.067 1118.29,425.046 1115.81,424.992C1113.92,424.992 1112.28,423.681 1111.86,421.834C1111.35,419.401 1111.4,416.969 1111.85,414.522C1112.27,412.624 1113.95,411.273 1115.9,411.273L1120.1,411.273C1116.56,400.59 1112.06,390.472 1106.72,381.078C1106.12,381.079 1105.77,381.079 1105.77,381.079C1105.75,381.079 1099.13,381.079 1095.15,380.992C1093.25,380.992 1091.61,379.681 1091.19,377.834C1090.68,375.401 1090.74,372.969 1091.18,370.522C1091.61,368.624 1093.29,367.273 1095.23,367.273L1097.91,367.273C1091.26,357.978 1083.69,349.622 1075.36,342.406C1073.65,342.413 1072.43,342.413 1072.43,342.413C1072.42,342.413 1065.79,342.412 1061.81,342.325C1059.92,342.325 1058.28,341.014 1057.86,339.167C1057.35,336.735 1057.4,334.302 1057.85,331.855C1057.99,331.214 1058.28,330.636 1058.67,330.15C1049.58,324.56 1039.83,320.187 1029.55,317.222C1028.99,317.502 1028.37,317.658 1027.72,317.658C1023.73,317.746 1017.1,317.746 1017.1,317.746C1017.09,317.746 1010.46,317.746 1006.48,317.658C1004.59,317.658 1002.94,316.347 1002.52,314.5C1002.41,313.944 1002.32,313.387 1002.26,312.83Z" style="fill:rgb(130,119,23);"/>
    </g>
</svg>
