<?xml version="1.0" encoding="UTF-8" standalone="no"?>
<!DOCTYPE svg PUBLIC "-//W3C//DTD SVG 1.1//EN" "http://www.w3.org/Graphics/SVG/1.1/DTD/svg11.dtd">
<svg width="100%" height="100%" viewBox="0 0 150 120" version="1.1" xmlns="http://www.w3.org/2000/svg" xmlns:xlink="http://www.w3.org/1999/xlink" xml:space="preserve" xmlns:serif="http://www.serif.com/" style="fill-rule:evenodd;clip-rule:evenodd;stroke-linejoin:round;stroke-miterlimit:2;">
    <g transform="matrix(120,0,0,120,0,105)">
        <path d="M0.498,-0.364C0.51,-0.352 0.53,-0.352 0.542,-0.364L0.564,-0.386C0.577,-0.398 0.577,-0.418 0.564,-0.43L0.495,-0.5L0.564,-0.57C0.577,-0.582 0.577,-0.602 0.564,-0.614L0.542,-0.636C0.53,-0.648 0.51,-0.648 0.498,-0.636L0.384,-0.522C0.372,-0.51 0.372,-0.49 0.384,-0.478L0.498,-0.364ZM0.686,-0.386L0.708,-0.364C0.72,-0.352 0.74,-0.352 0.752,-0.364L0.866,-0.478C0.878,-0.49 0.878,-0.51 0.866,-0.522L0.752,-0.636C0.74,-0.648 0.72,-0.648 0.708,-0.636L0.686,-0.614C0.673,-0.602 0.673,-0.582 0.686,-0.57L0.755,-0.5L0.686,-0.43C0.673,-0.418 0.673,-0.398 0.686,-0.386ZM1.219,-0.063L0.745,-0.063C0.744,-0.024 0.716,0 0.681,0L0.563,0C0.526,0 0.498,-0.034 0.498,-0.063L0.031,-0.063C0.014,-0.063 0,-0.048 0,-0.031L0,0C0,0.069 0.056,0.125 0.125,0.125L1.125,0.125C1.194,0.125 1.25,0.069 1.25,0L1.25,-0.031C1.25,-0.048 1.236,-0.063 1.219,-0.063ZM1.125,-0.781C1.125,-0.833 1.083,-0.875 1.031,-0.875L0.219,-0.875C0.167,-0.875 0.125,-0.833 0.125,-0.781L0.125,-0.125L1.125,-0.125L1.125,-0.781ZM1,-0.25L0.25,-0.25L0.25,-0.75L1,-0.75L1,-0.25Z" style="fill:rgb(130,119,23);fill-rule:nonzero;"/>
    </g>
</svg>
