<?xml version="1.0" encoding="UTF-8" standalone="no"?>
<!DOCTYPE svg PUBLIC "-//W3C//DTD SVG 1.1//EN" "http://www.w3.org/Graphics/SVG/1.1/DTD/svg11.dtd">
<svg width="100%" height="100%" viewBox="0 0 150 150" version="1.1" xmlns="http://www.w3.org/2000/svg" xmlns:xlink="http://www.w3.org/1999/xlink" xml:space="preserve" xmlns:serif="http://www.serif.com/" style="fill-rule:evenodd;clip-rule:evenodd;stroke-linejoin:round;stroke-miterlimit:2;">
    <g transform="matrix(150,0,0,150,0,131.25)">
        <path d="M0.88,-0.296C0.908,-0.323 0.933,-0.353 0.955,-0.386C0.965,-0.401 0.959,-0.422 0.944,-0.43L0.917,-0.446C0.903,-0.454 0.885,-0.449 0.876,-0.436C0.863,-0.417 0.848,-0.399 0.833,-0.382L0.684,-0.659C0.686,-0.669 0.687,-0.678 0.687,-0.688C0.687,-0.791 0.603,-0.875 0.5,-0.875C0.397,-0.875 0.313,-0.791 0.313,-0.688C0.313,-0.678 0.314,-0.669 0.316,-0.659L0.167,-0.382C0.152,-0.399 0.137,-0.417 0.124,-0.436C0.115,-0.449 0.097,-0.454 0.083,-0.446L0.056,-0.43C0.041,-0.422 0.035,-0.401 0.045,-0.386C0.067,-0.353 0.093,-0.324 0.121,-0.297L0,-0.072L0.015,0.056C0.018,0.081 0.032,0.102 0.054,0.114C0.066,0.121 0.079,0.125 0.093,0.125C0.103,0.125 0.113,0.123 0.123,0.119L0.243,0.067L0.365,-0.159C0.409,-0.147 0.454,-0.141 0.5,-0.141C0.546,-0.141 0.592,-0.147 0.635,-0.158L0.757,0.067L0.877,0.119C0.887,0.123 0.897,0.125 0.907,0.125C0.921,0.125 0.934,0.121 0.946,0.114C0.968,0.102 0.982,0.081 0.984,0.056L1,-0.072L0.88,-0.296ZM0.5,-0.781C0.552,-0.781 0.593,-0.739 0.593,-0.688C0.593,-0.636 0.552,-0.594 0.5,-0.594C0.448,-0.594 0.407,-0.636 0.407,-0.688C0.407,-0.739 0.448,-0.781 0.5,-0.781ZM0.177,-0.006L0.106,0.024L0.096,-0.054L0.367,-0.556C0.388,-0.534 0.416,-0.518 0.447,-0.509L0.447,-0.508L0.177,-0.006ZM0.5,-0.234C0.47,-0.234 0.44,-0.238 0.411,-0.244L0.5,-0.41L0.589,-0.244C0.56,-0.238 0.53,-0.234 0.5,-0.234ZM0.553,-0.508L0.553,-0.509C0.584,-0.518 0.612,-0.534 0.633,-0.556L0.761,-0.318C0.736,-0.3 0.708,-0.285 0.68,-0.273L0.553,-0.508ZM0.894,0.024L0.823,-0.006L0.724,-0.19C0.753,-0.203 0.78,-0.218 0.806,-0.236L0.904,-0.054L0.894,0.024Z" style="fill:rgb(130,119,23);fill-rule:nonzero;"/>
    </g>
</svg>
