<?xml version="1.0" encoding="UTF-8" standalone="no"?>
<!DOCTYPE svg PUBLIC "-//W3C//DTD SVG 1.1//EN" "http://www.w3.org/Graphics/SVG/1.1/DTD/svg11.dtd">
<svg width="100%" height="100%" viewBox="0 0 512 512" version="1.1" xmlns="http://www.w3.org/2000/svg" xmlns:xlink="http://www.w3.org/1999/xlink" xml:space="preserve" xmlns:serif="http://www.serif.com/" style="fill-rule:evenodd;clip-rule:evenodd;stroke-linejoin:round;stroke-miterlimit:2;">
    <path d="M77.001,428.444C52.417,420.797 30.384,404.513 16.55,382.509C5.91,365.585 0.162,345.788 0.002,325.669C-0.344,252.988 -0.344,180.304 0.002,107.623C0.292,71.087 20.262,35.351 51.614,16.033C68.372,5.707 88.027,0.158 107.623,0.002C206.423,-0.468 305.226,-0.156 404.027,0.001C440.245,0.173 475.956,19.776 495.45,50.782C506.14,67.786 511.904,87.839 511.999,107.973C512.114,180.538 512.343,253.104 511.998,325.669C511.708,362.205 491.738,397.941 460.386,417.259C452.471,422.136 443.909,425.948 435.012,428.629C435.005,431.972 434.997,435.316 434.989,438.661C434.842,458.795 421.892,477.802 402.702,485.084C333.013,511.139 255.386,518.955 180.691,504.802C156.509,500.22 132.751,493.519 109.653,485.084C90.533,477.995 77.051,458.882 77.001,438.274L77.001,428.444ZM92.788,250.687C92.64,313.328 92.544,375.97 93.003,438.609C93.171,452.352 102.234,465.341 115.366,470.137C170.939,490.374 230.27,499.605 288.973,494.628C325.435,491.536 361.595,483.069 395.61,470.644C409.06,465.732 418.885,453.062 418.989,438.583C419.146,375.861 419.101,313.263 419.052,250.687L396.459,250.687C396.452,255.408 396.43,260.128 396.385,264.848C396.203,276.333 386.252,286.763 374.212,286.878C346.244,286.967 318.274,287.143 290.306,286.877C278.821,286.695 268.39,276.744 268.276,264.704C268.261,260.032 268.242,255.36 268.227,250.687L242.903,250.687C242.896,255.408 242.875,260.128 242.83,264.848C242.648,276.333 232.697,286.763 220.657,286.878C192.688,286.967 164.718,287.143 136.751,286.877C125.266,286.695 114.835,276.744 114.721,264.704C114.706,260.031 114.686,255.359 114.671,250.687L92.788,250.687ZM435.044,411.496C460.441,401.98 481.764,381.464 490.875,355.364C494.248,345.699 495.951,335.45 496,325.268C496.113,252.754 496.346,180.238 495.998,107.725C495.698,69.889 470.218,33.742 434.073,21.125C424.417,17.755 414.216,16.049 403.977,16C305.43,15.844 206.883,16 108.336,16C76.985,16.05 46.352,33.09 29.801,59.771C20.878,74.155 16.081,91.047 16,108.023C15.886,180.538 15.657,253.054 16.002,325.567C16.299,363.084 41.317,398.919 77.001,411.837L77.001,112.488L434.999,112.488C434.999,125.284 434.999,138.081 434.999,150.877C434.998,237.69 435.184,324.398 435.044,411.496ZM137.065,213.602C133.769,213.613 130.816,216.467 130.722,219.751C130.391,234.675 130.72,249.607 130.72,264.534C130.72,267.835 133.647,270.846 136.996,270.878C164.827,270.965 192.657,270.879 220.488,270.878C223.838,270.878 226.8,267.934 226.832,264.602C226.878,249.717 226.832,234.832 226.832,219.946C226.832,216.596 223.887,213.634 220.555,213.602C192.725,213.513 164.895,213.602 137.065,213.602ZM290.62,213.602C287.276,213.613 284.308,216.54 284.276,219.88C284.227,234.764 284.275,249.649 284.275,264.533C284.276,267.868 287.217,270.846 290.552,270.878C318.382,270.965 346.213,270.879 374.043,270.878C377.393,270.878 380.355,267.934 380.387,264.602C380.433,249.717 380.387,234.832 380.387,219.946C380.387,216.645 377.458,213.634 374.111,213.602C346.281,213.513 318.45,213.602 290.62,213.602ZM418.999,128.488L93.001,128.488C93.001,163.887 92.912,199.287 92.826,234.687L114.648,234.687C114.653,229.669 114.674,224.651 114.722,219.633C114.904,208.148 124.855,197.717 136.895,197.603C164.815,197.514 192.736,197.514 220.657,197.603C232.17,197.712 242.715,207.565 242.831,219.777C242.847,224.747 242.868,229.717 242.883,234.687L268.203,234.687C268.208,229.669 268.23,224.651 268.277,219.633C268.459,208.148 278.41,197.717 290.45,197.603C318.371,197.514 346.292,197.514 374.212,197.603C385.726,197.712 396.27,207.565 396.387,219.777C396.402,224.746 396.423,229.716 396.439,234.687L419.04,234.687C419.018,206.751 418.999,178.818 418.999,150.877L418.999,128.488Z" style="fill:white;"/>
    <g transform="matrix(1,0,0,1,0,-0.214473)">
        <path d="M360.78,380.365L352.965,384.511C314.029,405.003 270.318,414.377 227.716,407.899C203.613,404.234 180.365,395.895 158.608,384.519L150.783,380.396L158.242,366.241L166.044,370.352C200.984,388.62 240.536,397.791 279.332,392.429C302.499,389.227 324.821,381.243 345.49,370.365L353.281,366.231C355.781,370.943 358.28,375.654 360.78,380.365Z" style="fill:white;"/>
    </g>
</svg>
