<?xml version="1.0" encoding="UTF-8" standalone="no"?>
<!DOCTYPE svg PUBLIC "-//W3C//DTD SVG 1.1//EN" "http://www.w3.org/Graphics/SVG/1.1/DTD/svg11.dtd">
<svg width="100%" height="100%" viewBox="0 0 112 128" version="1.1" xmlns="http://www.w3.org/2000/svg" xmlns:xlink="http://www.w3.org/1999/xlink" xml:space="preserve" xmlns:serif="http://www.serif.com/" style="fill-rule:evenodd;clip-rule:evenodd;stroke-linejoin:round;stroke-miterlimit:2;">
    <path d="M106,0C109.325,0 112,2.675 112,6L112,90C112,91.875 111.125,93.575 109.775,94.65C108.725,98.5 108.725,109.475 109.775,113.325C111.125,114.425 112,116.125 112,118L112,122C112,125.325 109.325,128 106,128L24,128C10.75,128 0,117.25 0,104L0,24C0,10.75 10.75,0 24,0L106,0ZM95.35,112C94.875,107.725 94.875,100.275 95.35,96L24,96C19.6,96 16,99.6 16,104C16,108.425 19.575,112 24,112L95.35,112Z" style="fill:rgb(103,58,183);fill-rule:nonzero;"/>
    <g transform="matrix(64.436,0,0,64.436,29.5728,70.9431)">
        <path d="M0.875,-0.732C0.875,-0.811 0.679,-0.875 0.438,-0.875C0.196,-0.875 0,-0.811 0,-0.732L0,-0.643C0,-0.564 0.196,-0.5 0.438,-0.5C0.679,-0.5 0.875,-0.564 0.875,-0.643L0.875,-0.732ZM0.875,-0.531C0.781,-0.467 0.609,-0.436 0.438,-0.436C0.266,-0.436 0.094,-0.467 0,-0.531L0,-0.33C0,-0.252 0.196,-0.188 0.438,-0.188C0.679,-0.188 0.875,-0.252 0.875,-0.33L0.875,-0.531ZM0.875,-0.219C0.781,-0.154 0.609,-0.124 0.438,-0.124C0.266,-0.124 0.094,-0.154 0,-0.219L0,-0.018C0,0.061 0.196,0.125 0.438,0.125C0.679,0.125 0.875,0.061 0.875,-0.018L0.875,-0.219Z" style="fill:rgb(255,152,0);fill-rule:nonzero;"/>
    </g>
</svg>
